<?xml version="1.0" encoding="utf-8"?>
<!-- Generator: Adobe Illustrator 26.0.1, SVG Export Plug-In . SVG Version: 6.00 Build 0)  -->
<svg version="1.1" id="Layer_1" xmlns="http://www.w3.org/2000/svg" xmlns:xlink="http://www.w3.org/1999/xlink" x="0px" y="0px"
	 viewBox="0 0 668 374" style="enable-background:new 0 0 668 374;" xml:space="preserve">
<style type="text/css">
	.st0{fill:#545452;}
	.st1{fill:#B24B56;}
	.st2{fill:url(#SVGID_1_);}
	.st3{fill:url(#SVGID_00000139996325282228431440000009348442117704997302_);}
	.st4{fill:url(#SVGID_00000031184665686686279980000004728631226314282657_);}
	.st5{fill:url(#SVGID_00000001648740740090705160000006976210809302105266_);}
	.st6{fill:url(#SVGID_00000094575901469271739170000001775827014531744916_);}
	.st7{fill:url(#SVGID_00000031186157940586377430000006153129039605576610_);}
	.st8{fill:#A8384C;}
	.st9{fill:#F47293;}
	.st10{fill:url(#SVGID_00000140719280366100651780000014463837470272468364_);}
	.st11{fill:url(#SVGID_00000115476386744327586140000015723873860504253884_);}
	.st12{fill:url(#SVGID_00000134231322782142376470000006686994207450031038_);}
	.st13{fill:url(#SVGID_00000061450839925757213540000006041118784396769471_);}
	.st14{fill:url(#SVGID_00000000906249768426154270000014146395588936909215_);}
	.st15{fill:url(#SVGID_00000042009169882778910270000000569276584782340781_);}
	.st16{fill:url(#SVGID_00000122716341633194367150000004558713263072595846_);}
	.st17{fill:url(#SVGID_00000023275024282306210190000010685593532682311559_);}
	.st18{fill:url(#SVGID_00000163791772225085041640000015153014647911422132_);}
</style>
<g>
	<path class="st0" d="M253.3,100c-3.1-5.4-9.3-8-15-9.5c-11.9-3.2-27.3-3.5-38.9,0.8c-3.7,1.4-7,3.4-10.4,5.3
		c-1.1-4.3-1.8-8.6-3.2-12.9c3.5-2.2,8-2.8,12-3.6c8.8-1.8,17.6-7.3,23.1-14.3c6.7-8.5,8.9-19.6,7.7-30.2c-0.8,0.4-1.8,0.7-2.5,1.3
		c-1.7,1.4-3.1,3.7-4.2,5.6c-3.8,6.3-7.2,13.3-14,17c-10.1,5.5-22-1-31.9-3.9c-4.3-1.7-9.1-2.8-13.7-3.1c-4.6-0.2-10.2-1.2-14.7-0.5
		c4.6,1.6,9,1.9,13.7,2.8c2.9,0.6,5.6,1.2,8.4,2.2c1.3,0.5,2.6,1.2,3.9,1.6c2.2,1.2,4,2.6,5.8,4.4c1.3,1.3,3.2,3.1,3.2,5
		c-1.3,1.8-6.9,2-9.1,2.7c-1.7,0.5-3.2,1.3-4.7,2.3c-12.4,8.2-2.4,17.3-3.1,20.5c-1,0.6-5.3,0.9-7.5,1.7c-4.3,1.7-7.8,4.7-12,6.4
		c2.5-3.9,6-6.5,9.3-9.7c-2.4,0.1-4.7,0.2-7,1.2c-9.3,4-12.2,15.7-15.8,24.3c-2.5-5-4.8-10.2-7.8-14.9c-0.6,0.5-1.2,1.1-1.7,1.7
		c-3.1,3.6-15.1,33.8-16.3,39.1c-0.7,2.9-0.6,5.4-0.4,8.4c6.3,5.5,14.2,3.5,21.5,5.4c-0.7,2.5-2,4.8-3.1,7.1c-0.7,1.5-1.8,3.7-1,5.4
		c1.8,4.2,17.6-0.9,21.8,0.5c5,3.1,1.2,28.8,3.5,35.3c1.3,3.7,9.4,8.6,12.2,12.3c5.3,6.8,8,14.6,10.4,22.7
		c1.9-5.8,3.7-11.6,6.1-17.2c8.7-20.5,15.4-30.5,15.2-53.9c0-6.5-0.9-13-1.8-19.5c-0.8-5.8-2.2-12.1-1.5-17.9c3,0.3,5.6,1.4,8.5,2.2
		c9.6,2.7,27.8,0.1,36.5-4.8c7.2-4,17-13.7,19.2-21.8C255.2,104.9,254.7,102.4,253.3,100z M174.2,118.7c-2.4,5-7.2,7.3-12.2,9.1
		c-3.9,0.7-7.9,0.9-11.6-0.9c-2.1-1-3.7-2.6-4.5-4.8c-0.9-2.8-0.4-6,0.9-8.7c2.3-4.6,6.8-8.2,11.7-9.8c3.5-0.4,7.4,0.1,10.6,1.5
		c2.5,1.2,4.8,3,5.7,5.7C175.8,113.4,175.4,116.3,174.2,118.7z"/>
	<path class="st0" d="M152.2,259.8c-0.4,0.7-0.6,1.4-1.4,1.6c-1.5-1.7-2.2-10.6-3.3-13.7c-6.5-4.8-15.3-6.7-22.3-10.7
		c-9.1-5.2-16.4-14.3-27.1-16.2c-8.7-1.5-17.3,2.2-26.1-1.5c-5.2-2.2-8-6.4-10-11.4c-3-0.7-6.9-1.5-9-3.9c-1.2-1.3-1.2-2.6-1.2-4.2
		c0-3.5,1.1-6.9,1.7-10.3c1-6.3,0.7-14.4,4-20c4.4-7.5,10.6-9.4,14.2-18.3c4.3-10.8,4.9-21.5,5.5-33c-3.7,5.1-10.4,8.6-16.3,10.5
		c-8.3,2.6-22.4,2.1-29.9-2c-2.3-1.2-4.3-3.1-5.1-5.7c-1.4-4.6,0.3-13.5,2.6-17.7c1.5-2.8,4.1-4.9,6.2-7.3c1.6-1.9,3.2-3.8,5.2-5.4
		C47,85.1,56.6,86.1,65,87c4,0.4,7.6,0.8,11.6-0.4c4.7-1.4,8-3.7,10.4-8c-3.8-3.2-16.3-4.8-22-7.4C56.2,67,49.7,57.3,46.5,48.3
		c-0.5-1.3-0.9-2.2-0.3-3.6c2.3-1,6.2,1.9,8.2,3c4.8,2.5,9.7,5.4,14.9,7.2c11.4,4.1,21.4,0.7,32.6-2.1c5-1.2,10.5-2.2,15.7-2.6
		c5-1,10-1.6,15-2.1c5.5-0.8,11.4-0.7,17-0.3l0.3,0.3c-3.8,1.7-12.3,1.8-16.7,2c-3.7,0.2-6.7,1.3-10.2,2.6l-0.3,0.6
		c0.5,0.7,1.4,0.9,2.3,1c1.7,0.2,3.4,0.2,5.1,0.2c-10.4,7.9-26.7,0.5-35.2,11.5c-3,3.9-4.8,8.9-6.6,13.5L88.1,80
		c-1.3,4.1-10.1,14.1-8.5,17.1c0.7,1.4,2,2.6,3,3.7c4.8,5.3,7.1,8.8,5,16.4c-1.3,4.7-4,9-5.3,13.6c-1.8,6.2-0.6,14.5-4.3,19.8
		c-2.9,4.2-7.8,6.5-11,10.4c1.7,4.3,6,7.9,10.2,9.7c10.9,4.7,23-2.7,28.9,0.1c1.5,0.7,2.4,2.2,2.9,3.6c2.2,5.1,2.5,12.6,0.3,17.8
		c-1.7,3.9-4.7,7-6.6,10.8c3.8,3,8.8,5.6,13.3,7.5c1.4-0.2,2.6-0.7,3.9-1.3c6.3-5.4,10.9-12.3,16.8-18c-3.5,7.3-9.6,14.5-15.5,20.1
		c-1.4,1.1-2.8,2.2-4.5,2.7c-7,0.9-11.9-2.3-18.4-3.5c-3.8-0.7-7.9-0.3-11.7-0.7c-5.6-0.5-13.9-4-19.4-2.4c-0.3,0.1-0.2,0.2-0.4,0.4
		c0.3,0.4,0.6,0.7,1,1c1,0.6,16.2,3.1,18,3.2c3.5,0.1,7.1-0.5,10.5,0.1c7.4,1.5,14.8,6.9,22.4,6.6c5.9-0.2,9.1-4.2,14.3-5.7
		c0.1,0,0.2-0.1,0.3-0.1c0.1,0,0.1,0,0.2,0.1c2,0.9,3.5,2.1,5.1,3.6c3.1,2.9,5.6,6.4,8.4,9.6c2.2,2.5,4.7,4.7,6.7,7.3
		c0.6,0.8,1.1,1.6,1.5,2.5C157.5,242.3,155.2,253.9,152.2,259.8z"/>
	<path class="st1" d="M217.9,193c-2.3-5.6-5.1-10.7-7.9-16.1c-1.2-2.3-2.3-4.7-3.7-7c1.2,5.2,3.1,10.1,4.4,15.2
		c1.2,5.1,1.7,10.1,2.6,15.3c0.8,18.2-2.6,32.8-15.2,46.6c-16.8,18.3-41.1,25.2-65.2,26.2c-19.5,0.8-38.2-4-55.5-12.7
		c-1.5-1.6-6.9-4.2-9.1-5.8c-3.8-2.8-7.3-6.3-10.8-9.6c-8.9-10.3-13.9-21-16-34.4c-0.3-10-2.1-20.5-0.2-30.4c0.9-3.3,1.8-6.8,3.2-10
		c-2.6,2.5-4.6,6.7-6.2,9.8c-7.5,14.4-14.6,32.1-15.2,48.4c0,1.1,0.1,2.3,0.2,3.4c-0.3,8.5,1.3,16.3,4.4,24.2
		c6.5,16.7,22.1,29,38.1,36c32.5,14.1,74.2,13.6,107,0.7c20.5-8.1,38.8-21.3,47.8-42C228.3,232.6,225,210.9,217.9,193z M118.6,279.1
		c0.1,0.1,0.2,0.1,0.3,0.2L118.6,279.1z M146.5,293.4c0.1-0.1,0.3-0.1,0.4-0.2C146.7,293.3,146.6,293.4,146.5,293.4z"/>
	<linearGradient id="SVGID_1_" gradientUnits="userSpaceOnUse" x1="494.5592" y1="242.9466" x2="527.9533" y2="242.9466">
		<stop  offset="0" style="stop-color:#195E3B"/>
		<stop  offset="1" style="stop-color:#0C864E"/>
	</linearGradient>
	<path class="st2" d="M526,219.3c1,1.1,1.2,4.4,1.1,6c0,0.3-0.1,0.5-0.2,0.8c-5.6,0-11.2,0-16.8,0.4c0.5,4-0.3,8.7,0.2,12.7
		c0.4,0.3,0.6,0.4,1,0.4c4.5-0.1,9.4-0.3,13.8,0.2c0.7,1.1,1.1,4.5,0.9,5.7c0,0.3-0.2,0.6-0.3,0.9c-4.8,0-11.7-0.6-16.1,0.4
		c0.3,2.4-0.1,9.4,0.3,12c5.8,0.7,11.6,0.1,17.3,0.8c0.6,1.3,1,4.9,0.6,6.2c-0.1,0.2-0.1,0.3-0.2,0.5c-7.9,0.3-16.3,0.6-24.1-0.1
		c-1.7-0.1-4.4-0.1-5.8-1.2c-1.7-1.3-2.3-5.7-2.6-7.8c-0.5-4.5-0.8-29,0.2-32.6c0.6-2,1.2-4.4,3.7-4.5"/>
	
		<linearGradient id="SVGID_00000159450006251825067490000018057448485138269582_" gradientUnits="userSpaceOnUse" x1="534.1581" y1="243.5778" x2="578.658" y2="243.5778">
		<stop  offset="0" style="stop-color:#195E3B"/>
		<stop  offset="1" style="stop-color:#0C864E"/>
	</linearGradient>
	<path style="fill:url(#SVGID_00000159450006251825067490000018057448485138269582_);" d="M537.6,229.4c-0.1-2.3-1.7-8.3-3.4-9.8
		c5,0,11.8-2.1,16.4,0.2c0.5,0.4,0.8,0.9,1.1,1.5c3.1,6.1,4.5,15.7,6.2,22.5c0.9,3.4,2.1,6.9,2.7,10.4c0.1,0.6,0,1.1-0.2,1.6
		c0.1-0.1,0.2-0.3,0.3-0.4c0-0.1,0.1-0.1,0.2-0.2c1.3-1.7,10-33.4,10-35.6c2.2-0.2,4.3-0.4,6.5-0.7c0.5,0,0.7,0.1,1.2,0.2
		c0.1,0.4,0.1,0.7,0.1,1.1c-0.8,5.9-3.8,15.2-5.4,21.2c-1.7,6.3-3,13.2-5.5,19.2c-0.9,2.2-2.1,4.4-4,5.8c-2.3,1.8-5.6,2.3-8.4,2
		c-2.2-0.3-4-1.2-5.5-2.9c-4.4-5.2-7.8-21-9.7-28.2"/>
	
		<linearGradient id="SVGID_00000050658376774280860160000011585456694073131924_" gradientUnits="userSpaceOnUse" x1="317.9339" y1="134.3723" x2="360.9336" y2="132.6713" gradientTransform="matrix(1 0 0 -1 0 376)">
		<stop  offset="0" style="stop-color:#195E3B"/>
		<stop  offset="1" style="stop-color:#0C864E"/>
	</linearGradient>
	<path style="fill:url(#SVGID_00000050658376774280860160000011585456694073131924_);" d="M348.6,226.6c-0.7-1.8-1.4-3.6-2.4-5.2
		c-1.1-1.9-3.2-3.2-5.4-3.7c-0.8-0.2-1.6-0.2-2.5-0.2c-2.6,0.4-4.9,1.2-6.6,3.4c-5.3,6.8-12.3,36-15.9,45.8c2.8-0.2,5.6-0.4,8.4-0.5
		c0.3-2.3,0.4-6.2,2.5-7.7c1.8-1.2,9.5-0.9,12-0.8l4,0.3c0.8,2.7,1.5,5.5,2.1,8.3c5.4,0.2,10.8,0.1,16.2,0.1
		C361.6,264.2,350.1,230.7,348.6,226.6z M335.7,251.6c-2.5,0-4.8-0.1-7.3-0.4c1.1-6.4,4-13.7,6.6-19.7c1,0.6,5.1,17.7,5.9,20.3
		L335.7,251.6z"/>
	
		<linearGradient id="SVGID_00000070087778718232040020000014924936012479586478_" gradientUnits="userSpaceOnUse" x1="370.5995" y1="241.8693" x2="422.3607" y2="241.8693">
		<stop  offset="0" style="stop-color:#195E3B"/>
		<stop  offset="1" style="stop-color:#0C864E"/>
	</linearGradient>
	<path style="fill:url(#SVGID_00000070087778718232040020000014924936012479586478_);" d="M421.1,266.3c-5,0.3-9.9,0.1-14.9,0
		c0.1-0.2,0.1-0.2,0.2-0.5c0.6-1.7,0.5-27.4,0.1-30.8c-0.1-0.8-0.3-1.6-0.7-2.3c0,1.3-1.6,3.3-2.2,4.6c-2,4.8-9.4,26.2-11.3,28.4
		l-0.4-0.1c-2-3.4-11.8-28.3-12.3-31.8c0-0.1,0-0.2,0-0.3l-0.3-0.3l-0.3-0.5c-0.5,0.5-0.6,0.8-0.7,1.8c0,0,0,0.5-0.1,0.5
		c0.4,1.2,0.4,29.7-0.1,30.8c-0.1,0.3-0.1,0.2-0.2,0.5c-2.2-0.1-4.5-0.2-6.8-0.2c0.2-0.4,0.4-0.8,0.4-1.3c0-2.9-0.4-5.8-0.5-8.7
		c-0.1-2.8-0.6-3.5-0.2-16.6c0-0.2,0.1-1.5,0-1.7c-0.2-3.8,0-7.5,0-10.6c0-2.6,0.2-5.8,2.2-7.8c2-1.8,5.1-2.1,7.6-2
		c2.3,0.1,4.3,0.7,5.9,2.5c2.3,2.6,9.4,17.4,9.3,20.5c3-2.5,5.7-14.5,8.9-18.9c1.5-2.1,3.7-3.8,6.3-4.2c2.6-0.4,6.6,0.5,8.6,2.1
		c1.6,1.3,1.9,2.8,2.2,4.7C422.4,229.2,422.9,263.8,421.1,266.3z"/>
	
		<linearGradient id="SVGID_00000017512422512278048070000005502770574427394948_" gradientUnits="userSpaceOnUse" x1="432.8065" y1="227.9102" x2="479.9541" y2="227.9102">
		<stop  offset="0" style="stop-color:#195E3B"/>
		<stop  offset="1" style="stop-color:#0C864E"/>
	</linearGradient>
	<path style="fill:url(#SVGID_00000017512422512278048070000005502770574427394948_);" d="M479.6,239.8c0.1-14.7,0.7-29.7,0.2-44.4
		c0-1,0,0,0-2.6c-0.2-2.2,0.1-1.3-0.2-2.2c-2.3-2-11-0.6-14.2-0.7c0,2.4-0.1,7-0.3,9.5c-0.2,3.3,0.2,16.8-0.5,18.8
		c-0.1,0.2-0.1,0.3-0.2,0.5c0,0.1,0,0.1-0.1,0.2l-0.2,0.1c-2.5,0.6-5.4,0.5-7.9,0.7c-8,0.6-15.3,3.2-19.7,10.3
		c-3.6,5.7-4.5,13.5-2.9,20c1.2,5.2,4.3,9.7,8.9,12.5c1.7,1,3.4,1.6,5.2,2.2c3.7,0.9,8,1.7,11.8,1.5c6,0.1,12,0.3,17.9,0
		c0.6,0,1.1,0,1.6-0.1l0.4-0.5c0.4-3.4,0.1-6.9,0.1-10.3L479.6,239.8z M464.3,259.4l-0.5,0.3c-2,0-3.8-0.1-5.7-0.8
		c-3.1-1.2-5.4-2.9-6.8-6c-2.4-5.5-2.4-15-0.2-20.5c1.1-2.7,2.9-4.5,5.6-5.6c1.7-0.7,6.6-2,8.2-1.3c0.2,0.9,0,1.5,0,2.4
		C464.8,231.6,465.4,256.7,464.3,259.4z"/>
	<path class="st0" d="M226.3,279.4l391.5-0.1c0.3,0.4,0.4,0.8,0.4,1.4c0.2,1.3,0,2.2-0.8,3.3c-2.2,1-48.4,0.3-55.1,0.3l-203.1-0.2
		l-86,0c-15.6,0-31.5,0.5-47.1-0.3C226,282.5,225.5,280.7,226.3,279.4z"/>
	
		<linearGradient id="SVGID_00000101080718082913415840000004135555915134404267_" gradientUnits="userSpaceOnUse" x1="248.4781" y1="230.8193" x2="310.7981" y2="230.8193">
		<stop  offset="0" style="stop-color:#195E3B"/>
		<stop  offset="1" style="stop-color:#0C864E"/>
	</linearGradient>
	<path style="fill:url(#SVGID_00000101080718082913415840000004135555915134404267_);" d="M310.8,266.2c-7.8,0.7-15.8,0.4-23.6,0.2
		c-1.2-3.4-2.9-6.8-4.4-10c-3.1-6.6-6.3-13.1-9.6-19.6c-1.4-2.7-2.4-5-4.8-7c0.6,0.1,1.2,0.1,1.7,0.2c4.8,0.4,11.3,0.7,15.2-2.6
		c2.7-2.3,4-5.8,4.1-9.3c0.2-3.8-0.8-7.8-3.3-10.6c-4-4.4-12.1-3.8-17.6-4c-0.4,6.9-0.2,13.9-0.2,20.9l0,42
		c-6.5,0.3-13.1,0.1-19.6,0c0.6-7.6,0.2-15.5,0.2-23.2l0.1-48c13.3,1,36.4-2,48,2.8c5,2.1,9.5,5.9,11.6,11.1
		c1.9,4.8,1.8,11.3-0.3,16c-2.9,6.6-9.4,8.6-15.6,11c4.3,6.3,7.8,13.2,11.5,19.8C306.1,259.4,308,263.1,310.8,266.2z"/>
	<path class="st0" d="M262.6,137.6c2.1,0.7,4.5,3.5,6.5,4.8c8.1,5.6,16.2,10,25.8,12.6c11,3,23.6,4.4,35,4.5
		c5.9,0.1,11.8-0.6,17.8-0.9c19.1-1.3,37.9-3.7,56.8-6.2c12.6-1.7,25.1-3.1,37.8-4.3c4.5-0.4,9-1.1,13.5-1.3
		c7.1-0.4,14.3-0.2,21.4-0.2c6,0,12-0.2,18,0.3c6.6,0.6,13.1,1.5,19.6,2.8c6.5,1.3,12.9,2.9,19.2,4.9c33.8,10.4,54.9,26.3,77.6,53
		c11.4,13.4,24.4,34.2,29.7,50.9c1.6,5.2,2.5,10.4,3.1,15.8c0.3,2.7,0.9,6,0.7,8.6c-0.1,0.9-0.2,1.2-0.9,1.7
		c-1.8-0.9-3.2-3.1-4.9-4.4c-0.2-0.9-8-11.7-9.3-13.7c-7.9-12.2-14.5-25.2-22.8-37.2c-4.7-6.8-9.8-13.3-15.3-19.4
		c-8.6-9.4-18.7-18.4-29.5-25.2c-3.9-2.4-8-4.4-12-6.4c-39.5-19.2-84.2-17.2-126.6-12c-34.2,4.2-68.8,10.5-103.3,9
		c-24.3-1-51.3-7.5-68.4-26.1C255.2,145,259,141.3,262.6,137.6z"/>
	<path class="st8" d="M118.6,279.1l0.3,0.2C118.8,279.2,118.7,279.1,118.6,279.1z M146.5,293.4c0.1,0,0.3-0.1,0.4-0.2
		C146.7,293.3,146.6,293.4,146.5,293.4z"/>
	<path class="st1" d="M146.9,293.3c-0.1,0.1-0.3,0.1-0.4,0.2C146.6,293.4,146.7,293.3,146.9,293.3z"/>
	<path class="st9" d="M146.9,293.3c-0.1,0.1-0.3,0.1-0.4,0.2C146.6,293.4,146.7,293.3,146.9,293.3z"/>
	<path class="st1" d="M118.5,279.1L118.5,279.1C118.5,279.1,118.5,279.1,118.5,279.1L118.5,279.1z"/>
	<path class="st1" d="M118.9,279.3l-0.3-0.2C118.7,279.1,118.8,279.2,118.9,279.3z"/>
	<path class="st0" d="M165.4,108.7c-0.8-0.9-2-1-3.1-1.2c-2.1,0-4.1,0-6.2,0.6c-3.4,1.8-6.4,4.1-7.5,8c-0.3,1.1-0.2,2,0.3,3.1
		c0.2,0.4,1.2,0.5,1.6,0.6c3.3,0.8,9.3,1.5,12.2-0.5c1.3-0.9,1.7-2.4,2-3.9c0-0.2,0-0.3,0.1-0.5C164.9,113.2,166,110.3,165.4,108.7z
		 M159.9,118.1c-2-0.2-3.9-0.5-5.3-2.2c-0.5-0.6-0.7-1.4-0.5-2.2c0.2-1,0.9-1.5,1.7-2.1c1.7-0.1,3.1,0,4.4,1.1
		c0.7,0.6,1.1,1.2,1.2,2.1C161.4,116.2,160.7,117.2,159.9,118.1z"/>
	<g>
		
			<linearGradient id="SVGID_00000097466778621714256920000008654690402961055395_" gradientUnits="userSpaceOnUse" x1="448.45" y1="320.2376" x2="471.948" y2="320.2376">
			<stop  offset="0" style="stop-color:#191E33"/>
			<stop  offset="1" style="stop-color:#293464"/>
		</linearGradient>
		<path style="fill:url(#SVGID_00000097466778621714256920000008654690402961055395_);" d="M467.3,313.6c0,0-2.1-1.3-5.3-1.3
			c-2.3,0-3.4,0.5-3.5,2c0,1.7,3.4,2,5.7,2.3c5.1,1,7.7,3.9,7.7,7.3c0,6.4-5.6,9.2-11.2,9.2c-7.4,0-11.9-5.3-12.3-5.8l4.6-4.1
			c0.1,0.2,3,4.3,7.3,4.3c2.3,0,5.2-0.7,5.2-2.9c0-1.8-2.2-2.4-3.9-2.6c-6.1-0.9-9.6-2.9-9.6-7.3c0-5.3,4.4-7.2,10-7.3
			c2,0,4.8,0.5,5.2,0.6V313.6z"/>
		
			<linearGradient id="SVGID_00000072259899055680046380000016103367873937422991_" gradientUnits="userSpaceOnUse" x1="452.6941" y1="301.6859" x2="471.4607" y2="301.6859">
			<stop  offset="0" style="stop-color:#191E33"/>
			<stop  offset="1" style="stop-color:#293464"/>
		</linearGradient>
		<path style="fill:url(#SVGID_00000072259899055680046380000016103367873937422991_);" d="M462.1,295.5l9.4,12.3h-6.7l-12-12.3
			H462.1z"/>
		
			<linearGradient id="SVGID_00000011710307733959223500000012807128503764149666_" gradientUnits="userSpaceOnUse" x1="475.8689" y1="320.1297" x2="494.6892" y2="320.1297">
			<stop  offset="0" style="stop-color:#191E33"/>
			<stop  offset="1" style="stop-color:#293464"/>
		</linearGradient>
		<path style="fill:url(#SVGID_00000011710307733959223500000012807128503764149666_);" d="M477.8,307.8h9.8c3.9,0,7.2,3.4,7.2,7.4
			c0,8.3-8.6,8.5-8.7,8.5l0.6,2.6c0.1,0.9,0.6,1.2,1.6,1.2h6.1v4.8h-10.1c-1.6,0-2.4-0.9-2.7-2.3l-1.9-6.4h-3.7v-5.6h9.6
			c1.8,0,2.6-1.3,2.6-2.6c0-1.3-0.9-2.6-2.6-2.6h-7.7V307.8z"/>
		
			<linearGradient id="SVGID_00000026137722664828312890000014877175936947726232_" gradientUnits="userSpaceOnUse" x1="487.7508" y1="315.0218" x2="506.8396" y2="315.0218">
			<stop  offset="0" style="stop-color:#191E33"/>
			<stop  offset="1" style="stop-color:#293464"/>
		</linearGradient>
		<path style="fill:url(#SVGID_00000026137722664828312890000014877175936947726232_);" d="M487.9,307.3c0-0.1-0.1-0.8-0.1-1.7
			c0-2.7,1-8,8.6-8c5.8,0,10.5,5.6,10.5,11.6v23.2h-6.8v-23.2c0-2.9-0.3-7.2-3.6-7.2c-1.8,0-2.3,1.6-2.3,3c0,1.2,0.3,2.2,0.3,2.2
			H487.9z"/>
		
			<linearGradient id="SVGID_00000149348225026843099790000010530833230459572632_" gradientUnits="userSpaceOnUse" x1="526.8914" y1="322.7918" x2="553.993" y2="322.7918">
			<stop  offset="0" style="stop-color:#191E33"/>
			<stop  offset="1" style="stop-color:#293464"/>
		</linearGradient>
		<path style="fill:url(#SVGID_00000149348225026843099790000010530833230459572632_);" d="M531.8,324.5c0.1,0.3,2.6,2.9,7.5,2.9
			c2.2-0.1,4.9-0.9,4.9-3.5c0-3.1-4.4-3.6-4.4-3.6l-12.2,2.4l-0.8-5l7.4-0.6c0,0-2.5-1.6-2.6-4.2c0-3.6,3.8-5.5,7.6-5.5
			c3,0,7.4,0.9,7.7,1.1l-0.2,4.3c-0.6-0.3-3.3-0.6-5.3-0.6c-2.6,0-3.9,1.3-3.9,2.5c0.1,1,1.5,1.6,1.6,1.6l14.4-1.9l0.5,4.9l-7.7,0.5
			c0.2,0.1,4.3,2.6,4.3,5.8c-0.2,6.1-6.7,7-9.5,7c-0.8,0-1.2-0.1-1.3-0.1l7.9,5.9h-8.8l-4.7-6.2c-0.1,0-2.2-0.8-3.4-1.6
			c-1.1-0.6-2.6-1.9-2.9-2L531.8,324.5z"/>
		
			<linearGradient id="SVGID_00000113330768537492963980000014426659308684412856_" gradientUnits="userSpaceOnUse" x1="558.6141" y1="320.157" x2="565.0125" y2="320.157">
			<stop  offset="0" style="stop-color:#191E33"/>
			<stop  offset="1" style="stop-color:#293464"/>
		</linearGradient>
		<path style="fill:url(#SVGID_00000113330768537492963980000014426659308684412856_);" d="M565,307.9v24.5h-6.4v-24.5H565z"/>
		
			<linearGradient id="SVGID_00000040552282454831444240000009328032795879512214_" gradientUnits="userSpaceOnUse" x1="568.8826" y1="318.2479" x2="585.8211" y2="318.2479">
			<stop  offset="0" style="stop-color:#191E33"/>
			<stop  offset="1" style="stop-color:#293464"/>
		</linearGradient>
		<path style="fill:url(#SVGID_00000040552282454831444240000009328032795879512214_);" d="M579.7,322.7v2.3c0,2.3-1.9,4.1-4.4,4.1
			c-4.8,0-6.4-3.3-6.4-6.9c0-4.8,4.5-4.8,4.6-4.8v-2.3c0-0.4,0.1-0.8,0.1-1.2c0-0.5-0.1-0.9-0.4-1.3c-0.2-0.2-0.5-0.3-1-0.3
			c-1.2,0-3.2,0.7-3.2,0.8v-5.2c0.2-0.2,2.4-0.5,4.6-0.5c2.2,0,4.4,0.2,5.1,1c1,1.2,1,1.9,1,4.3v4.7l6.1,0.1v5.2H579.7z"/>
		
			<linearGradient id="SVGID_00000094579484656742018510000013868344213495050633_" gradientUnits="userSpaceOnUse" x1="585.6033" y1="320.157" x2="592.0018" y2="320.157">
			<stop  offset="0" style="stop-color:#191E33"/>
			<stop  offset="1" style="stop-color:#293464"/>
		</linearGradient>
		<path style="fill:url(#SVGID_00000094579484656742018510000013868344213495050633_);" d="M592,307.9v24.5h-6.4v-24.5H592z"/>
		
			<linearGradient id="SVGID_00000007410730383251602040000003020541441543140739_" gradientUnits="userSpaceOnUse" x1="585.1717" y1="301.7396" x2="597.1629" y2="301.7396">
			<stop  offset="0" style="stop-color:#191E33"/>
			<stop  offset="1" style="stop-color:#293464"/>
		</linearGradient>
		<path style="fill:url(#SVGID_00000007410730383251602040000003020541441543140739_);" d="M585.2,302.5c0-4.9,4.4-6.8,8.7-6.8
			c1.1,0,2.3,0.2,3.3,0.4v4.5c-0.5-0.3-1.7-0.4-3.6-0.4c-1.9,0.1-2.6,1.8-2.6,3.6c0,1.6,0.5,3.2,1.3,4.1h-5.8
			C586.4,307.6,585.2,305.7,585.2,302.5z"/>
	</g>
</g>
</svg>
